<?xml version="1.0" ?><svg viewBox="0 0 22.061 22.07" xmlns="http://www.w3.org/2000/svg"><g data-name="Layer 2" id="Layer_2"><g data-name="Layer 1" id="Layer_1-2"><path d="M14.068,6.505a1.914,1.914,0,0,0,0-3.828A1.914,1.914,0,0,0,14.068,6.505Zm0-3.159a1.245,1.245,0,0,1,0,2.49A1.245,1.245,0,0,1,14.068,3.346ZM21.735,0H.325a.335.335,0,0,0,0,.669h1V12.377a.335.335,0,0,0,.334.335h8.756a.335.335,0,0,0,0-.669H2V.669H20.062V12.043H18.5V9.4A2.14,2.14,0,0,0,16.363,7.26H12.547a1.525,1.525,0,0,1-1.083-.449L8.513,3.86A1.236,1.236,0,0,0,6.764,5.607l4.32,4.341a1.214,1.214,0,0,1,.356.861v9.8a1.492,1.492,0,0,0,2.627.929A1.493,1.493,0,0,0,16.7,20.61V15.174A1.239,1.239,0,0,0,18.5,14.082v-1.37h1.9a.334.334,0,0,0,.334-.335V.669h1A.335.335,0,0,0,21.735,0ZM16.026,20.61a.812.812,0,0,1-1.624,0V15.494a.335.335,0,0,0-.67,0V20.61a.812.812,0,0,1-1.624,0V14.318h3.918Zm1.806-6.528a.567.567,0,0,1-1.134,0V9.71a.335.335,0,1,0-.669,0v3.939H12.108v-2.84a1.876,1.876,0,0,0-.55-1.333L7.237,5.134a.568.568,0,0,1,.8-.8l2.951,2.952a2.184,2.184,0,0,0,1.556.644h3.816A1.471,1.471,0,0,1,17.832,9.4ZM14.071,12.72a.334.334,0,0,1,0-.668A.334.334,0,0,1,14.071,12.72Zm0-1.6a.335.335,0,0,1,0-.669A.335.335,0,0,1,14.066,11.124Zm0-1.6a.335.335,0,0,1,0-.669A.335.335,0,0,1,14.066,9.527Z" data-name="staff training" id="staff_training"/></g></g></svg>